<svg xmlns="http://www.w3.org/2000/svg" width="268" height="200" fill="none" viewBox="0 0 268 200"><circle cx="134" cy="100" r="100" fill="#68B738"/><g clip-path="url(#a)"><path fill="#000" d="M246.236 55.5137a30.4025 30.4025 0 0 1 9-9.2c2-1.4 3.2-1.4 4.4 1.2 1.6 3.8 3 7.8 1.8 12a4.5891 4.5891 0 0 0-.12 2.1991c.14.7319.456 1.4187.92 2.0009 1.2 1.6 2.2 3.2 3.2 4.6a12.5412 12.5412 0 0 1 2.56 5.9591 12.536 12.536 0 0 1-.76 6.4409 10.8647 10.8647 0 0 0-.4 6.2c.4 1.98.4 4.02 0 6a7.4935 7.4935 0 0 1-1.723 4.0238 7.5003 7.5003 0 0 1-3.677 2.3762 10.419 10.419 0 0 0-6.4 4.0003c-.188.307-.453.56-.769.735-.315.176-.67.267-1.031.265-2.4.4-8.4-5.0003-8.4-7.4003v-1.2c.2-7.2-.2-7.8-6.8-10.8a8.7826 8.7826 0 0 1-3.6-2.4c-1.2-1.6-2.8-1.4-4.6-.8-1.8.6-2.8 1.8-2.6 3.8.604 4.8417.804 9.7251.6 14.6003.014.556.15 1.103.4 1.6 6.2 9 8.6 19.6 11.6 29.8 2.4 7.8 6.8 12 14.8 12.6 1.281.102 2.551.302 3.8.6a8.3183 8.3183 0 0 1 6.8 6.4c1.4 4.2.6 5.2-3.6 5.2h-13a6.4814 6.4814 0 0 1-4.6-1.6 23.3904 23.3904 0 0 0-6.8-4 14.53 14.53 0 0 1-6.8-5.2 57.163 57.163 0 0 0-8-9c-5.6-5.8-11.6-11.4-16.8-17.4a22.7697 22.7697 0 0 1-6.4-15.2c0-1.8-.4-2.6-2.4-1.8-.598.38-1.29.587-2 .6-5.6 0-8.4 3.4-10.4 8.4-1.8 4.2-4.2 8.2-6.4 12.4a20.8021 20.8021 0 0 0-2 8.4c0 4.8 1.2 6.4 5.6 8 2.8 1 5.4 2 6.8 4.8 1.6 3.2 1.2 4-2.2 4.2h-13.6a3.762 3.762 0 0 1-2.254-.488 3.769 3.769 0 0 1-1.546-1.712l-3.6-6a12.1013 12.1013 0 0 1-1.983-5.234c-.243-1.875-.043-3.782.583-5.566.866-3.473.934-7.097.2-10.6-.504-2.44-.46-4.961.128-7.382a16.8338 16.8338 0 0 1 3.272-6.618c1.2-1.4 1.2-2-.8-2.4a100.1664 100.1664 0 0 1-23.6-8.2003.2.2 0 0 1-.141-.0586.2026.2026 0 0 1-.059-.1414c-6.4-2.4-7.6-2-9.4 4.6-1.6 5.6003-3.2 11.2003-4.4 17.0003-1.4 6.4.2 12.4 2.2 18.4.8 2.4 3.2 2.2 5 2.8 4 1.2 7.4 2.8 9 7 1.4 3.2 1.2 3.6-2.2 3.6-3.4 0-6.8-.2-10.4 0-3.037.055-6.002-.934-8.4-2.8-9.6-6.4-12.4-16.2-13.2-26.8-.4-6.6-4-11.8-8.2-16.8-.8-1-1.6-1.4-2.8-.6a88.6254 88.6254 0 0 1-13.3995 6 53.4207 53.4207 0 0 0-24.4 17.6 21.2589 21.2589 0 0 0-4.4 10.2c-.6 3.6.4 5.2 4 6.2s5.4 3 5.8 6.8c.2 1.6-.4 2.4-2 2.4h-16.2a3.301 3.301 0 0 1-1.4962-.482 3.2949 3.2949 0 0 1-1.1038-1.118 17.121 17.121 0 0 1-3.8-11 101.19 101.19 0 0 1 1.8-20.6 12.6005 12.6005 0 0 1 2.2108-5.643 12.5947 12.5947 0 0 1 4.5892-3.957c11.8-5.6 18-16.2003 23.6-27.2003 1.2-2.2.2-2.6-1.8-2.4a32.9398 32.9398 0 0 0-15.4 6.4 141.23 141.23 0 0 0-16.6 14.2 33.342 33.342 0 0 1-20.6 9.8003c-14.6.8-21.4-7.4-20.8-20.6003a19.38 19.38 0 0 1 4.8-12.2 8.5003 8.5003 0 0 1 9-3c3 .8 3.8 2.4 2.6 5.4-.6 1.2-1.4 2.2-2 3.4a14.9984 14.9984 0 0 0-2 4c-2.2 6 .8 10.2 7 10.8 6.6.6 12-2.2 17-6.2a89.8808 89.8808 0 0 0 16-16.6 41.5789 41.5789 0 0 1 28.8-16.2c4.6-.6 8.6-2.6 13-3.8a83.014 83.014 0 0 1 25.3995-3.6 25.996 25.996 0 0 0 11.6-2.2c9.8-4 20-4 30.2-2 8 1.6 16 3.6 23.8 5.6 4.642.865 9.415.7286 14-.4a135.599 135.599 0 0 1 26.8-4 36.3182 36.3182 0 0 1 17.2 3.4c4 1.8 4 1.8 3 5.6Z"/></g><defs><clipPath id="a"><path fill="#fff" d="M0 44h268v112H0z"/></clipPath></defs></svg>